<?xml version="1.0" encoding="UTF-8"?>
<svg id="Layer_1" data-name="Layer 1" xmlns="http://www.w3.org/2000/svg" viewBox="0 0 160 160">
  <defs>
    <style>
      .cls-1 {
        fill: #262629;
      }

      .cls-2 {
        fill: #d6d6d6;
      }

      .cls-3 {
        fill: #0d8258;
      }

      .cls-4 {
        fill: #3a3a3a;
      }

      .cls-5 {
        fill: #fff;
      }

      .cls-6 {
        fill: #10b981;
      }
    </style>
  </defs>
  <g>
    <rect class="cls-3" x="83.52" y="45.52" width="33.35" height="82.8" rx="5.29" ry="5.29"/>
    <path class="cls-2" d="M111.58,46.02c2.64,0,4.79,2.15,4.79,4.79v72.23c0,2.64-2.15,4.79-4.79,4.79h-22.78c-2.64,0-4.79-2.15-4.79-4.79V50.8c0-2.64,2.15-4.79,4.79-4.79h22.78M111.58,45.02h-22.78c-3.2,0-5.79,2.59-5.79,5.79v72.23c0,3.2,2.59,5.79,5.79,5.79h22.78c3.2,0,5.79-2.59,5.79-5.79V50.8c0-3.2-2.59-5.79-5.79-5.79h0Z"/>
  </g>
  <g>
    <rect class="cls-6" x="85.45" y="47.56" width="29.5" height="78.7" rx="3.5" ry="3.5"/>
    <path class="cls-6" d="M111.45,48.06c1.65,0,3,1.35,3,3v71.7c0,1.65-1.35,3-3,3h-22.5c-1.65,0-3-1.35-3-3V51.06c0-1.65,1.35-3,3-3h22.5M111.45,47.06h-22.5c-2.21,0-4,1.79-4,4v71.7c0,2.21,1.79,4,4,4h22.5c2.21,0,4-1.79,4-4V51.06c0-2.21-1.79-4-4-4h0Z"/>
  </g>
  <g>
    <rect class="cls-4" x="43.13" y="31.69" width="33.35" height="81.96" rx="5.29" ry="5.29"/>
    <path class="cls-5" d="M71.19,32.19c2.64,0,4.79,2.15,4.79,4.79v71.39c0,2.64-2.15,4.79-4.79,4.79h-22.78c-2.64,0-4.79-2.15-4.79-4.79V36.97c0-2.64,2.15-4.79,4.79-4.79h22.78M71.19,31.19h-22.78c-3.2,0-5.79,2.59-5.79,5.79v71.39c0,3.2,2.59,5.79,5.79,5.79h22.78c3.2,0,5.79-2.59,5.79-5.79V36.97c0-3.2-2.59-5.79-5.79-5.79h0Z"/>
  </g>
  <g>
    <rect class="cls-1" x="45.05" y="33.72" width="29.5" height="77.9" rx="3.5" ry="3.5"/>
    <path class="cls-1" d="M71.05,34.22c1.65,0,3,1.35,3,3v70.9c0,1.65-1.35,3-3,3h-22.5c-1.65,0-3-1.35-3-3V37.22c0-1.65,1.35-3,3-3h22.5M71.05,33.22h-22.5c-2.21,0-4,1.79-4,4v70.9c0,2.21,1.79,4,4,4h22.5c2.21,0,4-1.79,4-4V37.22c0-2.21-1.79-4-4-4h0Z"/>
  </g>
</svg>