<?xml version="1.0" encoding="UTF-8"?>
<svg id="Layer_1" data-name="Layer 1" xmlns="http://www.w3.org/2000/svg" viewBox="0 0 160 160">
  <defs>
    <style>
      .cls-1 {
        fill: #0d8258;
      }

      .cls-2 {
        fill: #fff;
      }

      .cls-3 {
        fill: #10b981;
      }
    </style>
  </defs>
  <g>
    <rect x=".5" y=".5" width="159" height="159"/>
    <path d="M159,1v158H1V1h158M160,0H0v160h160V0h0Z"/>
  </g>
  <g>
    <g>
      <rect class="cls-1" x="81.96" y="43.25" width="33.35" height="82.8" rx="5.29" ry="5.29"/>
      <path d="M110.02,43.76c2.64,0,4.79,2.15,4.79,4.79v72.23c0,2.64-2.15,4.79-4.79,4.79h-22.78c-2.64,0-4.79-2.15-4.79-4.79V48.54c0-2.64,2.15-4.79,4.79-4.79h22.78M110.02,42.76h-22.78c-3.2,0-5.79,2.59-5.79,5.79v72.23c0,3.2,2.59,5.79,5.79,5.79h22.78c3.2,0,5.79-2.59,5.79-5.79V48.54c0-3.2-2.59-5.79-5.79-5.79h0Z"/>
    </g>
    <g>
      <rect class="cls-3" x="83.88" y="45.3" width="29.5" height="78.7" rx="3.5" ry="3.5"/>
      <path class="cls-3" d="M109.88,45.8c1.65,0,3,1.35,3,3v71.7c0,1.65-1.35,3-3,3h-22.5c-1.65,0-3-1.35-3-3V48.8c0-1.65,1.35-3,3-3h22.5M109.88,44.8h-22.5c-2.21,0-4,1.79-4,4v71.7c0,2.21,1.79,4,4,4h22.5c2.21,0,4-1.79,4-4V48.8c0-2.21-1.79-4-4-4h0Z"/>
    </g>
    <g>
      <rect class="cls-2" x="44.69" y="33.95" width="31.42" height="81.96" rx="5.29" ry="5.29"/>
      <path class="cls-2" d="M70.83,34.45c2.64,0,4.79,2.15,4.79,4.79v71.39c0,2.64-2.15,4.79-4.79,4.79h-20.85c-2.64,0-4.79-2.15-4.79-4.79V39.23c0-2.64,2.15-4.79,4.79-4.79h20.85M70.83,33.45h-20.85c-3.2,0-5.79,2.59-5.79,5.79v71.39c0,3.2,2.59,5.79,5.79,5.79h20.85c3.2,0,5.79-2.59,5.79-5.79V39.23c0-3.2-2.59-5.79-5.79-5.79h0Z"/>
    </g>
    <g>
      <path class="cls-2" d="M50.01,35.98h20.79c1.93,0,3.5,1.57,3.5,3.5v70.9c0,1.93-1.57,3.5-3.5,3.5h-20.79c-1.93,0-3.5-1.57-3.5-3.5V39.48c0-1.93,1.57-3.5,3.5-3.5Z"/>
      <path class="cls-2" d="M70.8,36.48c1.65,0,3,1.35,3,3v70.9c0,1.65-1.35,3-3,3h-20.79c-1.65,0-3-1.35-3-3V39.48c0-1.65,1.35-3,3-3h20.79M70.8,35.48h-20.79c-2.21,0-4,1.79-4,4v70.9c0,2.21,1.79,4,4,4h20.79c2.21,0,4-1.79,4-4V39.48c0-2.21-1.79-4-4-4h0Z"/>
    </g>
  </g>
</svg>