<?xml version="1.0" encoding="UTF-8"?>
<svg id="Layer_1" data-name="Layer 1" xmlns="http://www.w3.org/2000/svg" viewBox="0 0 160 160">
  <defs>
    <style>
      .cls-1, .cls-2 {
        fill: #d6d6d6;
      }

      .cls-2 {
        font-family: BarlowCondensed-Black, 'Barlow Condensed';
        font-size: 24.84px;
        font-weight: 800;
      }

      .cls-3 {
        fill: #10b981;
      }
    </style>
  </defs>
  <g>
    <rect x=".5" y=".5" width="159" height="159"/>
    <path d="M159,1v158H1V1h158M160,0H0v160h160V0h0Z"/>
  </g>
  <g>
    <path class="cls-1" d="M18.33,65.02h4.71c.94,0,1.7.76,1.7,1.7v20.56c0,.94-.76,1.7-1.7,1.7h-4.71c-.94,0-1.7-.76-1.7-1.7v-20.56c0-.94.76-1.7,1.7-1.7Z"/>
    <path class="cls-1" d="M23.05,65.52c.66,0,1.2.54,1.2,1.2v20.56c0,.66-.54,1.2-1.2,1.2h-4.71c-.66,0-1.2-.54-1.2-1.2v-20.56c0-.66.54-1.2,1.2-1.2h4.71M23.05,64.52h-4.71c-1.21,0-2.2.98-2.2,2.2v20.56c0,1.21.98,2.2,2.2,2.2h4.71c1.21,0,2.2-.98,2.2-2.2v-20.56c0-1.21-.98-2.2-2.2-2.2h0Z"/>
  </g>
  <g>
    <path class="cls-3" d="M29.25,69.04h4.71c.94,0,1.7.76,1.7,1.7v20.56c0,.94-.76,1.7-1.7,1.7h-4.71c-.94,0-1.7-.76-1.7-1.7v-20.56c0-.94.76-1.7,1.7-1.7Z"/>
    <path class="cls-3" d="M33.96,69.54c.66,0,1.2.54,1.2,1.2v20.56c0,.66-.54,1.2-1.2,1.2h-4.71c-.66,0-1.2-.54-1.2-1.2v-20.56c0-.66.54-1.2,1.2-1.2h4.71M33.96,68.54h-4.71c-1.21,0-2.2.98-2.2,2.2v20.56c0,1.21.98,2.2,2.2,2.2h4.71c1.21,0,2.2-.98,2.2-2.2v-20.56c0-1.21-.98-2.2-2.2-2.2h0Z"/>
  </g>
  <text class="cls-2" transform="translate(43.97 88.67)"><tspan x="0" y="0">NULLSHIFT</tspan></text>
</svg>